<svg fill="none" height="239" viewBox="0 0 317 239" width="317" xmlns="http://www.w3.org/2000/svg"><g stroke="#dfe3eb" stroke-linecap="round" stroke-linejoin="round" stroke-width="2"><path d="m320.796 237.998c0-22.245-18.034-40.279-40.28-40.279s-40.28 18.034-40.28 40.279z"/><path d="m-1.4408 157.118 40.2796-40.279-40.2796-40.2799z"/><path d="m38.8389 157.118 40.2796-40.279-40.2796-40.2799z"/><path d="m159.677 76.8828 40.28 40.2792 40.279-40.2792z"/><path d="m240.237 117.161-40.28 40.28-40.279-40.28z"/></g><g fill="#dfe3eb"><path d="m79.1198 237.68h1c0 .552-.4477 1-1 1zm0-80.56v-1c.5523 0 1 .448 1 1zm-80.55925 80.56v1c-.55228 0-1-.448-1-1zm0-80.56h-1c0-.265.10535-.519.29289-.707.18754-.187.44189-.293.70711-.293zm63.77535 63.775h1c0 .265-.1053.519-.2929.707-.1875.187-.4418.293-.7071.293zm0-46.993v-1c.2653 0 .5196.105.7071.293.1876.187.2929.441.2929.707zm-46.9929 46.993v1c-.5522 0-1-.448-1-1zm0-46.993h-1c0-.553.4478-1 1-1zm62.7768 63.778v-80.56h2v80.56zm-79.55925-1h80.55925v2h-80.55925zm.999997-79.56.000003 80.56h-2v-80.56zm79.559253 1h-80.55925v-2h80.55925zm-17.7839 62.775v-46.993h2v46.993zm-45.9929-1h46.9929v2h-46.9929zm1-45.993v46.993h-2v-46.993zm45.9929 1h-46.9929v-2h46.9929z"/><path d="m79.1192 76.5596h1c0 .5523-.4477 1-1 1zm0-80.55927v-1c.5523 0 1 .44771 1 1zm-80.55926 80.55927v1c-.55228 0-1-.4477-1-1zm0-80.55927h-1c0-.26522.10535-.51957.29289-.70711s.44189-.29289.70711-.29289zm63.77536 63.77407h1c0 .2652-.1053.5196-.2929.7071-.1875.1876-.4419.2929-.7071.2929zm0-46.9929v-1c.2652 0 .5196.1054.7071.2929.1876.1876.2929.4419.2929.7071zm-46.9929 46.9929v1c-.5522 0-1-.4477-1-1zm0-46.9929h-1c0-.5523.4478-1 1-1zm62.7768 63.7781v-80.55927h2v80.55927zm-79.55926-1h80.55926v2h-80.55926zm.999997-79.55927.000003 80.55927h-2v-80.55927zm79.559263 1h-80.55926v-2h80.55926zm-17.7839 62.77407v-46.9929h2v46.9929zm-45.9929-1h46.9929v2h-46.9929zm1-45.9929v46.9929h-2v-46.9929zm45.9929 1h-46.9929v-2h46.9929z"/><path d="m240.237 238h1c0 .552-.448 1-1 1zm0-80.559v-1c.265 0 .52.105.707.293.188.187.293.442.293.707zm-80.559 80.559v1c-.553 0-1-.448-1-1zm0-80.559h-1c0-.553.447-1 1-1zm63.775 63.774h1c0 .265-.105.519-.293.707-.187.188-.442.293-.707.293zm0-46.993v-1c.265 0 .52.105.707.293.188.187.293.442.293.707zm-46.993 46.993v1c-.552 0-1-.448-1-1zm0-46.993h-1c0-.552.448-1 1-1zm62.777 63.778v-80.559h2v80.559zm-79.559-1h80.559v2h-80.559zm1-79.559v80.559h-2v-80.559zm79.559 1h-80.559v-2h80.559zm-17.784 62.774v-46.993h2v46.993zm-45.993-1h46.993v2h-46.993zm1-45.993v46.993h-2v-46.993zm45.993 1h-46.993v-2h46.993z"/></g><g stroke="#dfe3eb" stroke-linecap="round" stroke-linejoin="round" stroke-width="2"><path d="m159.678 157.441c0-22.246-18.034-40.28-40.28-40.28-22.2457 0-40.2795 18.034-40.2795 40.28z"/><path d="m79.1185-3.99837c0 22.24577 18.0338 40.27957 40.2795 40.27957 22.246 0 40.28-18.0338 40.28-40.27957-41.287 0-55.385 0-80.5595 0z"/><path d="m119.398 238 40.28-40.28-40.28-40.279-40.2795 40.279z"/><path d="m199.957 76.5591 40.28-40.2796-40.28-40.27967-40.279 40.27967z"/><circle r="40.28" transform="matrix(-.00000004 1 1 .00000004 280.28 36.2796)"/><circle r="40.28" transform="matrix(-.00000004 1 1 .00000004 280.517 157.441)"/><path d="m240.237 36.2798v121.1612"/><path d="m119.398 117.161v-80.5589m28.482 68.7619-56.9639-56.9643m-11.7976 28.482h80.5595m-68.7617 28.4823 56.9637-56.9643"/></g></svg>