<svg fill="none" height="240" viewBox="0 0 317 240" width="317" xmlns="http://www.w3.org/2000/svg"><path d="m240.796-1.00001 40.28 40.27961 40.279-40.2796z" stroke="#ded8fd" stroke-linecap="round" stroke-linejoin="round" stroke-width="2"/><path d="m321.355 119.839h1c0 .552-.448 1-1 1zm0-80.5594v-1c.552 0 1 .4477 1 1zm-80.559 80.5594v1c-.553 0-1-.448-1-1zm0-80.5594h-1c0-.2652.105-.5195.293-.7071.187-.1875.441-.2929.707-.2929zm63.776 63.7764h1c0 .265-.106.519-.293.707-.188.187-.442.293-.707.293zm0-46.9933v-1c.552 0 1 .4478 1 1zm-46.993 46.9933v1c-.553 0-1-.448-1-1zm0-46.9933h-1c0-.2652.105-.5195.293-.7071.187-.1875.441-.2929.707-.2929zm62.776 63.7763v-80.5594h2v80.5594zm-79.559-1h80.559v2h-80.559zm1-79.5594v80.5594h-2v-80.5594zm79.559 1h-80.559v-2h80.559zm-17.783 62.7764v-46.9933h2v46.9933zm-45.993-1h46.993v2h-46.993zm1-45.9933v46.9933h-2v-46.9933zm45.993 1h-46.993v-2h46.993z" fill="#ded8fd"/><g stroke="#ded8fd" stroke-linecap="round" stroke-linejoin="round" stroke-width="2"><path d="m321.355 160.118c0-22.245-18.033-40.279-40.279-40.279s-40.28 18.034-40.28 40.279z"/><path d="m240.796 241c0-22.246-18.033-40.28-40.279-40.28s-40.28 18.034-40.28 40.28z"/><path d="m281.076 240.678 40.279-40.28-40.279-40.28-40.28 40.28z"/><path d="m-41.1611 160.119 40.279589-40.28-40.279589-40.2797z"/><path d="m79.6778 79.8815 40.2792 40.2795 40.28-40.2795z"/><path d="m160.237 120.161-40.28 40.28-40.2793-40.28z"/></g><g fill="#ded8fd"><path d="m-.880818 240.678h1c0 .552-.447715 1-1 1zm0-80.559v-1c.552285 0 1 .447 1 1zm-80.559282 80.559v1c-.5522 0-1-.448-1-1zm0-80.559h-1c0-.266.1054-.52.2929-.708.1876-.187.4419-.292.7071-.292zm63.7759 63.776h1c0 .265-.1054.519-.2929.707-.1875.187-.4419.293-.7071.293zm0-46.993v-1c.2652 0 .5196.105.7071.293.1875.187.2929.441.2929.707zm-46.9929 46.993v1c-.5523 0-1-.448-1-1zm0-46.993h-1c0-.553.4477-1 1-1zm62.77628 63.776v-80.559h2.000002v80.559zm-79.55928-1h80.559282v2h-80.559282zm1-79.559v80.559h-2v-80.559zm79.559282 1h-80.559282v-2h80.559282zm-17.783382 62.776v-46.993h2v46.993zm-45.9929-1h46.9929v2h-46.9929zm1-45.993v46.993h-2v-46.993zm45.9929 1h-46.9929v-2h46.9929z"/><path d="m-.880818 79.5594h1c0 .5523-.447715 1-1 1zm0-80.559225v-.999995c.552285 0 1 .44771 1 .999995zm-80.559282 80.559225v1c-.5522 0-1-.4477-1-1zm0-80.559225-1 .000001c0-.265216.1054-.519566.2929-.707106.1876-.18754.4419-.29289.7071-.29289zm63.7759 63.776025h1c0 .2652-.1054.5196-.2929.7071s-.4419.2929-.7071.2929zm0-46.9929v-1c.2652 0 .5196.1053.7071.2929.1875.1875.2929.4419.2929.7071zm-46.9929 46.9929v1c-.5523 0-1-.4477-1-1zm0-46.9929h-1c0-.5523.4477-1 1-1zm62.77628 63.7761v-80.559225h2.000002v80.559225zm-79.55928-1h80.559282v2h-80.559282zm1-79.559225v80.559225h-2v-80.559224zm79.559282 1.00000048h-80.559282v-1.99999548h80.559282zm-17.783382 62.77602452v-46.9929h2v46.9929zm-45.9929-1h46.9929v2h-46.9929zm1-45.9929v46.9929h-2v-46.9929zm45.9929 1h-46.9929v-2h46.9929z"/><path d="m160.237 241h1c0 .552-.448 1-1 1zm0-80.559v-1c.265 0 .52.105.707.293.188.187.293.442.293.707zm-80.5593 80.559v1c-.5522 0-1-.448-1-1zm0-80.559h-1c0-.553.4477-1 1-1zm63.7763 63.776h1c0 .265-.106.519-.293.707-.188.187-.442.293-.707.293zm0-46.993v-1c.265 0 .519.105.707.293.187.187.293.442.293.707zm-46.9933 46.993v1c-.5523 0-1-.448-1-1zm0-46.993h-1c0-.552.4477-1 1-1zm62.7763 63.776v-80.559h2v80.559zm-79.5593-1h80.5593v2h-80.5593zm1-79.559v80.559h-2v-80.559zm79.5593 1h-80.5593v-2h80.5593zm-17.783 62.776v-46.993h2v46.993zm-45.9933-1h46.9933v2h-46.9933zm1-45.993v46.993h-2v-46.993zm45.9933 1h-46.9933v-2h46.9933z"/></g><g stroke="#ded8fd" stroke-linecap="round" stroke-linejoin="round" stroke-width="2"><path d="m79.6777 160.441c0-22.246-18.0338-40.28-40.2797-40.28-22.2458 0-40.279593 18.034-40.279594 40.28z"/><path d="m-.881512-.999992c0 22.245792 18.033812 40.279592 40.279612 40.279592s40.2796-18.0338 40.2796-40.279591c-41.2866 0-55.3844 0-80.559212-.000001z"/><path d="m39.398 241 40.2797-40.28-40.2797-40.279-40.279592 40.279z"/><path d="m119.957 79.5593 40.28-40.2797-40.28-40.279587-40.2793 40.279587z"/><circle r="40.28" transform="matrix(-.00000004 1 1 .00000004 200.517 39.2796)"/><circle r="40.28" transform="matrix(-.00000004 1 1 .00000004 200.517 160.441)"/><path d="m240.796 39.2796v121.1614"/><path d="m160.237 39.2796v121.1614"/><path d="m39.398 120.161v-80.5591m28.4819 68.7621-56.964-56.9645m-11.797492 28.482h80.559292m-68.7616 28.4825 56.964-56.9645"/></g></svg>