<svg fill="none" height="245" viewBox="0 0 325 245" width="325" xmlns="http://www.w3.org/2000/svg"><g stroke="#fae4cd" stroke-linecap="round" stroke-linejoin="round" stroke-width="2"><path d="m243 162.335-40.333-40.334 40.333-40.333z"/><path d="m202.672 162.335-40.333-40.334 40.333-40.333z"/><path d="m81.6666 81.668-40.3333 40.333-40.3333-40.333z"/><path d="m323.667.999993-40.334 40.333307-40.333-40.3333z"/><path d="m1.00331 122 40.33329 40.333 40.3333-40.333z"/></g><path d="m162.331 243h-1c0 .552.448 1 1 1zm0-80.667v-1c-.552 0-1 .448-1 1zm80.667 80.667v1c.552 0 1-.448 1-1zm0-80.667h1c0-.265-.105-.519-.293-.707-.187-.187-.442-.293-.707-.293zm-63.858 63.861h-1c0 .266.105.52.293.708.187.187.442.292.707.292zm0-47.055v-1c-.265 0-.52.105-.707.293-.188.187-.293.442-.293.707zm47.056 47.055v1c.265 0 .519-.105.707-.292.187-.188.293-.442.293-.708zm0-47.055h1c0-.552-.448-1-1-1zm-62.865 63.861v-80.667h-2v80.667zm79.667-1h-80.667v2h80.667zm-1-79.667v80.667h2v-80.667zm-79.667 1h80.667v-2h-80.667zm17.809 62.861v-47.055h-2v47.055zm46.056-1h-47.056v2h47.056zm-1-46.055v47.055h2v-47.055zm-46.056 1h47.056v-2h-47.056z" fill="#fae4cd"/><path d="m162.331 81.668h-1c0 .5522.448 1 1 1zm0-80.66664v-1.00000197c-.552 0-1 .44771497-1 1.00000197zm80.667 80.66664v1c.552 0 1-.4477 1-1zm0-80.66664h1c0-.265218-.105-.519572-.293-.707109-.187-.187536-.442-.29289297-.707-.29289297zm-63.858 63.86094h-1c0 .2652.105.5196.293.7071.187.1876.442.2929.707.2929zm0-47.0555v-1c-.265 0-.52.1054-.707.2929-.188.1875-.293.4419-.293.7071zm47.056 47.0555v1c.265 0 .519-.1053.707-.2929.187-.1875.293-.4419.293-.7071zm0-47.0555h1c0-.5523-.448-1-1-1zm-62.865 63.8612v-80.66664h-2v80.66664zm79.667-1h-80.667v2h80.667zm-1-79.66664v80.66664h2v-80.66664zm-79.667 1h80.667v-2.00000197h-80.667zm17.809 62.86094v-47.0555h-2v47.0555zm46.056-1h-47.056v2h47.056zm-1-46.0555v47.0555h2v-47.0555zm-46.056 1h47.056v-2h-47.056z" fill="#fae4cd"/><path d="m1.0014 243h-.99999973c0 .552.44771473 1 .99999973 1zm0-80.667v-1c-.552284 0-.99999973.448-.99999973 1zm80.6666 80.667v1c.5522 0 1-.448 1-1zm0-80.667h1c0-.265-.1054-.519-.2929-.707-.1876-.187-.4419-.293-.7071-.293zm-63.8581 63.861h-1c0 .266.1054.52.2929.708.1875.187.4419.292.7071.292zm0-47.055v-1c-.2652 0-.5196.105-.7071.293-.1875.187-.2929.442-.2929.707zm47.0555 47.055v1c.5523 0 1-.447 1-1zm0-47.055h1c0-.552-.4477-1-1-1zm-62.864 63.861v-80.667h-1.99999973v80.667zm79.6666-1h-80.6666v2h80.6666zm-1-79.667v80.667h2v-80.667zm-79.6666 1h80.6666v-2h-80.6666zm17.8085 62.861v-47.055h-2v47.055zm46.0555-1h-47.0555v2h47.0555zm-1-46.055v47.055h2v-47.055zm-46.0555 1h47.0555v-2h-47.0555z" fill="#fae4cd"/><g stroke="#fae4cd" stroke-linecap="round" stroke-linejoin="round" stroke-width="2"><path d="m243.003 243.001c0-22.275 18.058-40.333 40.334-40.333 22.275 0 40.333 18.058 40.333 40.333-41.342 0-55.458 0-80.667 0z"/><path d="m81.6673 162.333c0-22.275 18.0579-40.333 40.3337-40.333 22.275 0 40.333 18.058 40.333 40.333-41.342 0-55.458 0-80.6667 0z"/><path d="m162.337.99872c0 22.27548-18.058 40.33328-40.334 40.33328-22.2752 0-40.3331-18.0578-40.3331-40.333279 41.3421-.000001 55.4581-.000001 80.6671-.000001z"/><path d="m283.337 122-40.334-40.3333 40.334-40.3333 40.333 40.3333z"/><path d="m122.001 243-40.3336-40.333 40.3336-40.334 40.333 40.334z"/><path d="m41.3366 81.668-40.33329-40.3333 40.33329-40.33335 40.3333 40.33335z"/><ellipse cx="283.337" cy="162.335" rx="40.333" ry="40.333" transform="matrix(-1 0 0 -1 566.674 324.67)"/><ellipse cx="122.001" cy="81.667" rx="40.333" ry="40.333" transform="matrix(-1 0 0 -1 244.002 163.3334)"/></g></svg>