<svg fill="none" height="240" viewBox="0 0 317 240" width="317" xmlns="http://www.w3.org/2000/svg"><g stroke="#d8ebfd" stroke-linecap="round" stroke-linejoin="round" stroke-width="2"><path d="m75.6689 160.333 40.3331-40.333-40.3331-40.3334z"/><path d="m115.999 160.333 40.333-40.333-40.333-40.3334z"/><path d="m237.002 79.6666 40.334 40.3334 40.333-40.3334z"/><path d="m-4.99768-.999977 40.33328 40.333277 40.3333-40.333269z"/><path d="m317.666 120-40.333 40.333-40.333-40.333z"/></g><path d="m156.339 241h1c0 .552-.447 1-1 1zm0-80.667v-1c.553 0 1 .448 1 1zm-80.6664 80.667v1c-.5523 0-1-.448-1-1zm0-80.667h-1c0-.265.1054-.519.2929-.707.1875-.187.4419-.293.7071-.293zm63.8584 63.861h1c0 .266-.106.52-.293.707-.188.188-.442.293-.707.293zm0-47.055v-1c.265 0 .519.105.707.293.187.187.293.442.293.707zm-47.0559 47.055v1c-.2652 0-.5195-.105-.7071-.293-.1875-.187-.2929-.441-.2929-.707zm0-47.055h-1c0-.552.4478-1 1-1zm62.8639 63.861v-80.667h2v80.667zm-79.6664-1h80.6664v2h-80.6664zm1-79.667v80.667h-2v-80.667zm79.6664 1h-80.6664v-2h80.6664zm-17.808 62.861v-47.055h2v47.055zm-46.0559-1h47.0559v2h-47.0559zm1-46.055v47.055h-2v-47.055zm46.0559 1h-47.0559v-2h47.0559z" fill="#d8ebfd"/><path d="m156.339 79.6668h1c0 .5523-.447 1-1 1zm0-80.666632v-.999998c.553 0 1 .44771 1 .999998zm-80.6664 80.666632v1c-.5523 0-1-.4477-1-1zm0-80.666632h-1c0-.265218.1054-.519568.2929-.707108s.4419-.29289.7071-.29289zm63.8584 63.860932h1c0 .2652-.106.5196-.293.7071-.188.1876-.442.2929-.707.2929zm0-47.0555v-1c.265 0 .519.1054.707.2929.187.1875.293.4419.293.7071zm-47.0559 47.0555v1c-.2652 0-.5195-.1053-.7071-.2929-.1875-.1875-.2929-.4419-.2929-.7071zm0-47.0555h-1c0-.5523.4478-1 1-1zm62.8639 63.8612v-80.666632h2v80.666632zm-79.6664-1h80.6664v2h-80.6664zm1-79.666632v80.666632h-2v-80.666632zm79.6664.99999985h-80.6664v-1.99999785h80.6664zm-17.808 62.86093215v-47.0555h2v47.0555zm-46.0559-1h47.0559v2h-47.0559zm1-46.0555v47.0555h-2v-47.0555zm46.0559 1h-47.0559v-2h47.0559z" fill="#d8ebfd"/><path d="m317.668 241h1c0 .552-.447 1-1 1zm0-80.667v-1c.553 0 1 .448 1 1zm-80.666 80.667v1c-.552 0-1-.448-1-1zm0-80.667h-1c0-.265.105-.519.293-.707.187-.187.442-.293.707-.293zm63.858 63.861h1c0 .266-.105.52-.293.707-.188.188-.442.293-.707.293zm0-47.055v-1c.265 0 .519.105.707.293.188.187.293.442.293.707zm-47.056 47.055v1c-.552 0-1-.447-1-1zm0-47.055h-1c0-.553.448-1 1-1zm62.864 63.861v-80.667h2v80.667zm-79.666-1h80.666v2h-80.666zm1-79.667v80.667h-2v-80.667zm79.666 1h-80.666v-2h80.666zm-17.808 62.861v-47.055h2v47.055zm-46.056-1h47.056v2h-47.056zm1-46.055v47.055h-2v-47.055zm46.056 1h-47.056v-2h47.056z" fill="#d8ebfd"/><g stroke="#d8ebfd" stroke-linecap="round" stroke-linejoin="round" stroke-width="2"><path d="m75.6665 241c0-22.276-18.0578-40.333-40.3333-40.333s-40.33332 18.057-40.33332 40.333z"/><path d="m237.002 160.333c0-22.275-18.058-40.333-40.333-40.333-22.276 0-40.334 18.058-40.334 40.333z"/><path d="m156.333-.999968c0 22.275468 18.058 40.333268 40.333 40.333268 22.276 0 40.334-18.0578 40.334-40.333267-41.342 0-55.459-.000001-80.667-.000001z"/><path d="m35.3332 120 40.3333-40.3334-40.3333-40.3333-40.33332 40.3333z"/><path d="m196.669 241 40.333-40.333-40.333-40.334-40.334 40.334z"/><path d="m277.333 79.6666 40.333-40.3333-40.333-40.333294-40.333 40.333294z"/><ellipse rx="40.333" ry="40.333" transform="matrix(1 0 0 -1 35.3332 160.333)"/><ellipse rx="40.333" ry="40.333" transform="matrix(1 0 0 -1 196.669 79.6666)"/></g></svg>