<svg fill="none" height="240" viewBox="0 0 317 240" width="317" xmlns="http://www.w3.org/2000/svg"><g stroke="#f9dad7" stroke-linecap="round" stroke-linejoin="round" stroke-width="2"><path d="m-2.20378-1.00001 40.27958 40.27961 40.2797-40.2796z"/><path d="m158.915 79.5592 40.279-40.2796-40.279-40.2796z"/><path d="m199.194 79.5592 40.28-40.2796-40.28-40.2796z"/><path d="m78.3548 39.2812 40.2792 40.2797 40.28-40.2797z"/><path d="m158.915 119.839-40.28-40.2798-40.2795 40.2798z"/><path d="m320.033 160.441-40.279-40.28-40.28 40.28z"/></g><path d="m78.3549 119.839h1c0 .552-.4477 1-1 1zm0-80.5594v-1c.5523 0 1 .4477 1 1zm-80.55924 80.5594v1c-.55229 0-1-.448-1-1zm-.00001-80.5594h-1c0-.2652.10536-.5195.2929-.7071.18753-.1875.44189-.2929.7071-.2929zm63.77535 63.7744h1c0 .265-.1053.519-.2928.707-.1876.187-.4419.293-.7072.293zm0-46.9932v-1c.2653 0 .5196.1054.7072.2929.1875.1875.2928.4419.2928.7071zm-46.9928 46.9932v1c-.5523 0-1-.448-1-1zm0-46.9932h-1c0-.5523.4477-1 1-1zm62.7767 63.7782v-80.5594h2v80.5594zm-79.55924-1h80.55924v2h-80.55924zm.99999-79.5594.00001 80.5594h-2l-.00001-80.5594zm79.55925 1h-80.55925v-2h80.55925zm-17.7839 62.7744v-46.9932h2v46.9932zm-45.9928-1h46.9928v2h-46.9928zm1-45.9932v46.9932h-2v-46.9932zm45.9928 1h-46.9928v-2h46.9928z" fill="#f9dad7"/><path d="m320.033 241h1c0 .552-.448 1-1 1zm0-80.559v-1c.552 0 1 .447 1 1zm-80.56 80.559v1c-.552 0-1-.448-1-1zm0-80.559h-1c0-.265.106-.52.293-.707.188-.188.442-.293.707-.293zm63.776 63.774h1c0 .265-.106.519-.293.707-.188.187-.442.293-.707.293zm0-46.993v-1c.265 0 .519.105.707.293.187.187.293.442.293.707zm-46.993 46.993v1c-.552 0-1-.448-1-1zm0-46.993h-1c0-.552.448-1 1-1zm62.777 63.778v-80.559h2v80.559zm-79.56-1h80.56v2h-80.56zm1-79.559v80.559h-2v-80.559zm79.56 1h-80.56v-2h80.56zm-17.784 62.774v-46.993h2v46.993zm-45.993-1h46.993v2h-46.993zm1-45.993v46.993h-2v-46.993zm45.993 1h-46.993v-2h46.993z" fill="#f9dad7"/><g stroke="#f9dad7" stroke-linecap="round" stroke-linejoin="round" stroke-width="2"><path d="m78.3554 160.118c0-22.245-18.0338-40.279-40.2796-40.279-22.2459 0-40.27966 18.034-40.27966 40.279z"/><path d="m158.915 240.998c0-22.245-18.034-40.279-40.28-40.279-22.2457 0-40.2795 18.034-40.2795 40.279z"/><path d="m320.034 120.162c0-22.2454-18.034-40.2792-40.28-40.2792s-40.279 18.0338-40.279 40.2792z"/><path d="m158.915 39.2796c0-22.2458-18.034-40.279597-40.28-40.279598-22.2457-.000001-40.2795 18.033798-40.2795 40.279598z"/><path d="m38.0765 240.68 40.2796-40.28-40.2796-40.28-40.27962 40.28z"/><path d="m199.194 241 40.28-40.28-40.28-40.279-40.279 40.279z"/><path d="m279.754 79.5591 40.279-40.2796-40.279-40.27967-40.28 40.27967z"/><circle r="40.28" transform="matrix(1 0 0 -1 199.194 120.161)"/><path d="m118.635 200.398v-80.559m28.482 68.762-56.964-56.964m-11.7975 28.481h80.5595m-68.7618 28.483 56.9638-56.964"/></g></svg>