<svg fill="none" height="240" viewBox="0 0 317 240" width="317" xmlns="http://www.w3.org/2000/svg"><g stroke="#d1f0db" stroke-linecap="round" stroke-linejoin="round" stroke-width="2"><path d="m78.7962-1.00001 40.2798 40.27961 40.279-40.2796z"/><path d="m239.915 79.5592 40.279-40.2796-40.279-40.2796z"/><path d="m280.194 79.5592 40.28-40.2796-40.28-40.2796z"/><path d="m159.356 39.2796 40.279 40.2797 40.28-40.2797z"/><path d="m239.915 119.839-40.28-40.2798-40.28 40.2798z"/></g><path d="m159.355 119.839h1c0 .552-.448 1-1 1zm0-80.5594v-1c.552 0 1 .4477 1 1zm-80.5593 80.5594v1c-.5523 0-1-.448-1-1zm0-80.5594h-1c0-.2652.1053-.5195.2928-.7071.1876-.1875.4419-.2929.7072-.2929zm63.7763 63.7764h1c0 .265-.106.519-.293.707-.188.187-.442.293-.707.293zm0-46.9933v-1c.552 0 1 .4478 1 1zm-46.9934 46.9933v1c-.5523 0-1-.448-1-1zm0-46.9933h-1c0-.2652.1054-.5195.2929-.7071.1876-.1875.4419-.2929.7071-.2929zm62.7764 63.7763v-80.5594h2v80.5594zm-79.5593-1h80.5593v2h-80.5593zm1-79.5594v80.5594h-2v-80.5594zm79.5593 1h-80.5593v-2h80.5593zm-17.783 62.7764v-46.9933h2v46.9933zm-45.9934-1h46.9934v2h-46.9934zm1-45.9933v46.9933h-2v-46.9933zm45.9934 1h-46.9934v-2h46.9934z" fill="#d1f0db"/><g stroke="#d1f0db" stroke-linecap="round" stroke-linejoin="round" stroke-width="2"><path d="m159.356 160.118c0-22.245-18.034-40.279-40.28-40.279-22.2459 0-40.2797 18.034-40.2797 40.279z"/><path d="m78.7963 241c0-22.246-18.0338-40.28-40.2796-40.28s-40.27964 18.034-40.27964 40.28z"/><path d="m239.915 241c0-22.246-18.034-40.28-40.28-40.28s-40.28 18.034-40.28 40.28z"/><path d="m239.915 39.2796c0-22.2458-18.034-40.279597-40.28-40.279598s-40.28 18.033798-40.28 40.279598z"/><path d="m119.076 240.678 40.28-40.28-40.28-40.28-40.2797 40.28z"/><path d="m280.194 241 40.28-40.28-40.28-40.279-40.279 40.279z"/><circle r="40.28" transform="matrix(1 0 0 -1 280.194 120.161)"/><circle r="40.28" transform="matrix(-.00000004 1 1 .00000004 38.5167 39.2796)"/><circle r="40.28" transform="matrix(-.00000004 1 1 .00000004 38.5167 160.441)"/><path d="m78.7963 39.2796v121.1614"/><path d="m199.635 200.398v-80.559m28.482 68.762-56.964-56.964m-11.798 28.481h80.56m-68.762 28.483 56.964-56.964"/></g></svg>