<svg fill="none" height="545" viewBox="0 0 724 545" width="724" xmlns="http://www.w3.org/2000/svg"><g stroke-linecap="round" stroke-linejoin="round" stroke-width="3"><g stroke="#353f52"><path d="m722 362.907-90-90.047-90 90.047z"/><path d="m362 542.793c0-49.732-40.294-90.047-90-90.047s-90 40.315-90 90.047z"/><path d="m92 542.279 90-90.046-90-90.047-90 90.047z"/><path d="m452 543 90-90.047-90-90.046-90 90.046z"/><path d="m632 182.093 90-90.0463-90-90.04665-90 90.04665z"/><ellipse rx="90" ry="90.047" transform="matrix(1 0 0 -1 452 272.86)"/></g><g stroke="#144699"><path clip-rule="evenodd" d="m722 362.907v180.093h-180v-180.093zm-37.5 37.519v105.055h-105v-105.055z" fill-rule="evenodd"/><path d="m722 272.86c0-49.731-40.294-90.047-90-90.047s-90 40.316-90 90.047z"/><path d="m271.872 452.744v-191.744m67.792 163.664-135.584-135.584m-28.08 67.792h191.744m-163.663 67.792 135.583-135.584"/></g></g></svg>